<mxfile host="app.diagrams.net" modified="2021-04-05T14:18:07.824Z" agent="5.0 (Windows)" etag="DaNEL-2dbpqOsBNU8S99" version="14.5.4" type="github">
  <diagram id="C5RBs43oDa-KdzZeNtuy" name="Page-1">
    <mxGraphModel dx="1422" dy="775" grid="1" gridSize="10" guides="1" tooltips="1" connect="1" arrows="1" fold="1" page="1" pageScale="1" pageWidth="827" pageHeight="1169" math="0" shadow="0">
      <root>
        <mxCell id="WIyWlLk6GJQsqaUBKTNV-0" />
        <mxCell id="WIyWlLk6GJQsqaUBKTNV-1" parent="WIyWlLk6GJQsqaUBKTNV-0" />
        <mxCell id="HpGM14Y6S8SkIuO0l1AE-0" value="Начало" style="rounded=1;whiteSpace=wrap;html=1;fontFamily=Times New Roman;fontSize=17;" vertex="1" parent="WIyWlLk6GJQsqaUBKTNV-1">
          <mxGeometry x="40" y="20" width="120" height="60" as="geometry" />
        </mxCell>
        <mxCell id="HpGM14Y6S8SkIuO0l1AE-1" value="ввод N" style="shape=parallelogram;perimeter=parallelogramPerimeter;whiteSpace=wrap;html=1;fixedSize=1;fontFamily=Times New Roman;fontSize=17;" vertex="1" parent="WIyWlLk6GJQsqaUBKTNV-1">
          <mxGeometry x="40" y="90" width="120" height="60" as="geometry" />
        </mxCell>
        <mxCell id="HpGM14Y6S8SkIuO0l1AE-2" value="&lt;span style=&quot;font-size: 17px;&quot; lang=&quot;EN-US&quot;&gt;p&lt;/span&gt;&lt;span style=&quot;font-size: 17px;&quot;&gt;←1; &lt;/span&gt;&lt;span style=&quot;font-size: 17px;&quot; lang=&quot;EN-US&quot;&gt;i&lt;/span&gt;&lt;span style=&quot;font-size: 17px;&quot;&gt; ← 1;&lt;/span&gt;" style="rounded=0;whiteSpace=wrap;html=1;fontFamily=Times New Roman;fontSize=17;" vertex="1" parent="WIyWlLk6GJQsqaUBKTNV-1">
          <mxGeometry x="40" y="160" width="120" height="60" as="geometry" />
        </mxCell>
        <mxCell id="HpGM14Y6S8SkIuO0l1AE-3" value="&lt;span style=&quot;font-size: 17px;&quot; lang=&quot;EN-US&quot;&gt;i&lt;/span&gt;&lt;span style=&quot;font-size: 17px;&quot;&gt;≤&lt;/span&gt;&lt;span style=&quot;font-size: 17px;&quot; lang=&quot;EN-US&quot;&gt;N&lt;/span&gt;?" style="rhombus;whiteSpace=wrap;html=1;fontFamily=Times New Roman;fontSize=17;" vertex="1" parent="WIyWlLk6GJQsqaUBKTNV-1">
          <mxGeometry x="40" y="230" width="120" height="80" as="geometry" />
        </mxCell>
        <mxCell id="HpGM14Y6S8SkIuO0l1AE-4" value="&lt;span style=&quot;font-size: 17px;&quot; lang=&quot;EN-US&quot;&gt;p&lt;/span&gt;&lt;span style=&quot;font-size: 17px;&quot;&gt; ←&lt;/span&gt;&lt;span style=&quot;font-size: 17px;&quot; lang=&quot;EN-US&quot;&gt;p&lt;/span&gt;&lt;span style=&quot;font-size: 17px;&quot;&gt;*&lt;/span&gt;&lt;span style=&quot;font-size: 17px;&quot; lang=&quot;EN-US&quot;&gt;i&lt;/span&gt;&lt;span style=&quot;font-size: 17px;&quot;&gt;; &lt;/span&gt;&lt;span style=&quot;font-size: 17px;&quot; lang=&quot;EN-US&quot;&gt;i&lt;/span&gt;&lt;span style=&quot;font-size: 17px;&quot;&gt;←&lt;/span&gt;&lt;span style=&quot;font-size: 17px;&quot; lang=&quot;EN-US&quot;&gt;i&lt;/span&gt;&lt;span style=&quot;font-size: 17px;&quot;&gt;+1;&lt;/span&gt;" style="rounded=0;whiteSpace=wrap;html=1;fontFamily=Times New Roman;fontSize=17;" vertex="1" parent="WIyWlLk6GJQsqaUBKTNV-1">
          <mxGeometry x="40" y="320" width="120" height="60" as="geometry" />
        </mxCell>
        <mxCell id="HpGM14Y6S8SkIuO0l1AE-5" value="конец" style="rounded=1;whiteSpace=wrap;html=1;fontFamily=Times New Roman;fontSize=17;" vertex="1" parent="WIyWlLk6GJQsqaUBKTNV-1">
          <mxGeometry x="40" y="480" width="120" height="60" as="geometry" />
        </mxCell>
        <mxCell id="HpGM14Y6S8SkIuO0l1AE-6" value="&lt;span style=&quot;font-size: 17px;&quot;&gt;вывод &lt;/span&gt;&lt;span style=&quot;font-size: 17px;&quot; lang=&quot;EN-US&quot;&gt;p&lt;/span&gt;&lt;span style=&quot;font-size: 17px;&quot;&gt;&lt;/span&gt;" style="shape=parallelogram;perimeter=parallelogramPerimeter;whiteSpace=wrap;html=1;fixedSize=1;fontFamily=Times New Roman;fontSize=17;" vertex="1" parent="WIyWlLk6GJQsqaUBKTNV-1">
          <mxGeometry x="40" y="410" width="120" height="60" as="geometry" />
        </mxCell>
        <mxCell id="HpGM14Y6S8SkIuO0l1AE-8" value="" style="endArrow=none;html=1;entryX=0.5;entryY=1;entryDx=0;entryDy=0;fontFamily=Times New Roman;fontSize=17;" edge="1" parent="WIyWlLk6GJQsqaUBKTNV-1" source="HpGM14Y6S8SkIuO0l1AE-1" target="HpGM14Y6S8SkIuO0l1AE-0">
          <mxGeometry width="50" height="50" relative="1" as="geometry">
            <mxPoint x="240" y="140" as="sourcePoint" />
            <mxPoint x="290" y="90" as="targetPoint" />
          </mxGeometry>
        </mxCell>
        <mxCell id="HpGM14Y6S8SkIuO0l1AE-9" value="" style="endArrow=none;html=1;entryX=0.5;entryY=1;entryDx=0;entryDy=0;exitX=0.5;exitY=0;exitDx=0;exitDy=0;fontFamily=Times New Roman;fontSize=17;" edge="1" parent="WIyWlLk6GJQsqaUBKTNV-1" source="HpGM14Y6S8SkIuO0l1AE-2" target="HpGM14Y6S8SkIuO0l1AE-1">
          <mxGeometry width="50" height="50" relative="1" as="geometry">
            <mxPoint x="110" y="110" as="sourcePoint" />
            <mxPoint x="110" y="90" as="targetPoint" />
          </mxGeometry>
        </mxCell>
        <mxCell id="HpGM14Y6S8SkIuO0l1AE-10" value="" style="endArrow=none;html=1;exitX=0.5;exitY=0;exitDx=0;exitDy=0;entryX=0.5;entryY=1;entryDx=0;entryDy=0;fontFamily=Times New Roman;fontSize=17;" edge="1" parent="WIyWlLk6GJQsqaUBKTNV-1" source="HpGM14Y6S8SkIuO0l1AE-3" target="HpGM14Y6S8SkIuO0l1AE-2">
          <mxGeometry width="50" height="50" relative="1" as="geometry">
            <mxPoint x="120" y="120" as="sourcePoint" />
            <mxPoint x="100" y="240" as="targetPoint" />
          </mxGeometry>
        </mxCell>
        <mxCell id="HpGM14Y6S8SkIuO0l1AE-11" value="" style="endArrow=none;html=1;exitX=0.5;exitY=0;exitDx=0;exitDy=0;fontFamily=Times New Roman;fontSize=17;" edge="1" parent="WIyWlLk6GJQsqaUBKTNV-1" source="HpGM14Y6S8SkIuO0l1AE-4" target="HpGM14Y6S8SkIuO0l1AE-3">
          <mxGeometry width="50" height="50" relative="1" as="geometry">
            <mxPoint x="130" y="130" as="sourcePoint" />
            <mxPoint x="130" y="110" as="targetPoint" />
          </mxGeometry>
        </mxCell>
        <mxCell id="HpGM14Y6S8SkIuO0l1AE-12" value="" style="endArrow=none;html=1;fontFamily=Times New Roman;fontSize=17;" edge="1" parent="WIyWlLk6GJQsqaUBKTNV-1" source="HpGM14Y6S8SkIuO0l1AE-6" target="HpGM14Y6S8SkIuO0l1AE-4">
          <mxGeometry width="50" height="50" relative="1" as="geometry">
            <mxPoint x="140" y="140" as="sourcePoint" />
            <mxPoint x="140" y="120" as="targetPoint" />
          </mxGeometry>
        </mxCell>
        <mxCell id="HpGM14Y6S8SkIuO0l1AE-13" value="" style="endArrow=none;html=1;fontFamily=Times New Roman;fontSize=17;" edge="1" parent="WIyWlLk6GJQsqaUBKTNV-1" source="HpGM14Y6S8SkIuO0l1AE-5" target="HpGM14Y6S8SkIuO0l1AE-6">
          <mxGeometry width="50" height="50" relative="1" as="geometry">
            <mxPoint x="150" y="150" as="sourcePoint" />
            <mxPoint x="150" y="130" as="targetPoint" />
          </mxGeometry>
        </mxCell>
        <mxCell id="HpGM14Y6S8SkIuO0l1AE-14" value="" style="endArrow=classic;html=1;exitX=1;exitY=0.5;exitDx=0;exitDy=0;rounded=0;fontFamily=Times New Roman;fontSize=17;" edge="1" parent="WIyWlLk6GJQsqaUBKTNV-1" source="HpGM14Y6S8SkIuO0l1AE-3">
          <mxGeometry width="50" height="50" relative="1" as="geometry">
            <mxPoint x="240" y="290" as="sourcePoint" />
            <mxPoint x="100" y="400" as="targetPoint" />
            <Array as="points">
              <mxPoint x="190" y="270" />
              <mxPoint x="190" y="400" />
            </Array>
          </mxGeometry>
        </mxCell>
      </root>
    </mxGraphModel>
  </diagram>
</mxfile>
